<svg id="Layer_1" data-name="Layer 1" xmlns="http://www.w3.org/2000/svg" viewBox="0 0 128 128"><path d="M64,13.77,2.5,114.23h123ZM64,23l52.58,86.59L29.8,99.07Z" style="fill:#fff"/><path d="M104.63,31.74c0-10.21-10.54-10.55-10.54-10.55,10.21,0,10.54-10.54,10.54-10.54,0,10.21,10.55,10.54,10.55,10.54C105,21.19,104.63,31.74,104.63,31.74Z" style="fill:#fff"/><path d="M115.24,18.41c0-4.49-4.64-4.64-4.64-4.64,4.49,0,4.64-4.63,4.64-4.63,0,4.49,4.64,4.63,4.64,4.63C115.39,13.77,115.24,18.41,115.24,18.41Z" style="fill:#fff"/></svg>