<svg id="Layer_1" data-name="Layer 1" xmlns="http://www.w3.org/2000/svg" viewBox="0 0 350 350"><path d="M124.44,239.19a64.19,64.19,0,0,1-8.12-127.87,61.23,61.23,0,0,1,28-28.77,94.55,94.55,0,1,0,37.59,167.53l-21.75-21.74A63.9,63.9,0,0,1,124.44,239.19Z"/><path d="M184.06,83.15a61.7,61.7,0,0,1,26.68,6.16,88,88,0,0,1,9,5.38,2.16,2.16,0,0,0,2.8,0,59.82,59.82,0,0,1,30.86-11.28c15.54-1.15,29.73,2.82,42.16,12.26,12.28,9.32,20.25,21.64,23.19,36.82,3.7,19.05-.42,36.45-12.82,51.48-4.65,5.64-10.26,10.5-15.43,15.71-.29.29-.6.55-.89.83q-10.2,10.06-20.42,20.13-11.78,11.55-23.59,23.06L223,265.78c-1.41,1.37-1.49,1.41-3,.07-5.71-5.16-11.44-10.31-17.12-15.52-21.36-19.62-41.22-40.76-61.87-61.1a61.8,61.8,0,0,1-13.81-68.62,59.5,59.5,0,0,1,12.52-18.8,60.39,60.39,0,0,1,38-18.24C179.83,83.35,182,83.29,184.06,83.15Zm2.27,25c-12.79.17-23,5.38-30.37,15.85a34.92,34.92,0,0,0-6.27,24.6,34.49,34.49,0,0,0,9.71,21.12q30.15,30.41,60.51,60.58c1.31,1.31,1.35,1.3,2.68,0q30.47-30.47,60.89-61a27.41,27.41,0,0,0,4.88-6.6c6.92-13.23,6.66-26.34-1.82-38.76-8.19-12-20-16.87-34.27-15.57A34.62,34.62,0,0,0,230.46,119c-5.56,5.6-11.12,11.2-16.74,16.73a11.1,11.1,0,0,1-15.54.46,10.84,10.84,0,0,1-.78-15.23c1.93-2.31,4.18-4.36,6.28-6.52,1.07-1.1,1.09-1.23-.22-1.94A34.93,34.93,0,0,0,186.33,108.13Z"/><path d="M266.53,117.19a5,5,0,0,0-5.08,8.69,34.26,34.26,0,0,1,15,18.16,5,5,0,0,0,9.5-3.34A44.31,44.31,0,0,0,266.53,117.19Z"/></svg>