<svg xmlns="http://www.w3.org/2000/svg" viewBox="0 0 290.21 189.09"><g id="Layer_2" data-name="Layer 2"><g id="Layer_1-2" data-name="Layer 1"><path d="M94.55,158.73A64.19,64.19,0,0,1,86.43,30.86a61.17,61.17,0,0,1,28-28.76A94.55,94.55,0,1,0,152,169.62l-21.74-21.74A63.83,63.83,0,0,1,94.55,158.73Z" style="fill:#fff"/><path d="M154.17,2.7a61.49,61.49,0,0,1,26.67,6.16,84.68,84.68,0,0,1,9.06,5.38,2.16,2.16,0,0,0,2.8,0A59.69,59.69,0,0,1,223.56,2.94c15.54-1.16,29.73,2.81,42.16,12.25C278,24.52,286,36.84,288.91,52c3.69,19.05-.43,36.46-12.82,51.48-4.65,5.65-10.26,10.5-15.43,15.72-.29.28-.6.54-.89.83q-10.21,10.06-20.42,20.12-11.78,11.55-23.6,23.06l-22.64,22.11c-1.4,1.37-1.48,1.4-3,.07-5.72-5.17-11.44-10.32-17.12-15.53-21.36-19.61-41.22-40.76-61.87-61.1A61.78,61.78,0,0,1,97.35,40.16a59.43,59.43,0,0,1,12.52-18.81,60.36,60.36,0,0,1,38-18.24C149.93,2.9,152.05,2.83,154.17,2.7Zm2.27,25c-12.79.17-23,5.38-30.38,15.85a35,35,0,0,0-6.27,24.61,34.55,34.55,0,0,0,9.72,21.11c20.09,20.27,40.33,40.4,60.51,60.58,1.31,1.31,1.35,1.31,2.68,0q30.47-30.47,60.89-61a28.21,28.21,0,0,0,4.88-6.61c6.92-13.23,6.66-26.34-1.83-38.76-8.19-12-20-16.87-34.26-15.57a34.68,34.68,0,0,0-21.81,10.63c-5.56,5.59-11.13,11.19-16.75,16.73a11.09,11.09,0,0,1-15.53.46,10.86,10.86,0,0,1-.79-15.24c1.94-2.31,4.18-4.35,6.29-6.52,1.07-1.1,1.09-1.22-.22-1.93A35,35,0,0,0,156.44,27.67Z" style="fill:#fff"/><path d="M236.64,36.73a5,5,0,1,0-5.08,8.69,34.25,34.25,0,0,1,15,18.17A5,5,0,0,0,256,60.24,44.25,44.25,0,0,0,236.64,36.73Z" style="fill:#fff"/></g></g></svg>