<svg id="Layer_1" data-name="Layer 1" xmlns="http://www.w3.org/2000/svg" viewBox="0 0 500 320"><path d="M372.24,197.21a37.21,37.21,0,0,1-4.71-74.13,35.46,35.46,0,0,1,16.23-16.67,54.81,54.81,0,1,0,21.79,97.11l-12.61-12.6A37,37,0,0,1,372.24,197.21Z" style="fill:none;stroke:#fff;stroke-width:4px"/><path d="M406.8,106.75a35.62,35.62,0,0,1,15.46,3.58,50.63,50.63,0,0,1,5.25,3.11,1.24,1.24,0,0,0,1.62,0,35.73,35.73,0,0,1,55.78,21.91c2.14,11-.25,21.14-7.43,29.85-2.7,3.27-6,6.08-9,9.11-.16.16-.35.31-.51.48q-5.92,5.83-11.84,11.67-6.82,6.69-13.68,13.36l-13.12,12.82c-.82.79-.87.81-1.72,0q-5-4.48-9.93-9c-12.38-11.37-23.9-23.63-35.86-35.42a35.84,35.84,0,0,1-8-39.78,34.44,34.44,0,0,1,7.26-10.9,35.08,35.08,0,0,1,22-10.58C404.34,106.87,405.57,106.83,406.8,106.75Zm1.31,14.49a20.7,20.7,0,0,0-17.6,9.18,21.12,21.12,0,0,0,2,26.51q17.47,17.63,35.08,35.12c.76.75.78.75,1.55,0q17.67-17.65,35.3-35.34a16.31,16.31,0,0,0,2.83-3.83c4-7.67,3.86-15.27-1.06-22.47-4.74-6.95-11.59-9.78-19.86-9a20.1,20.1,0,0,0-12.64,6.16c-3.23,3.25-6.45,6.49-9.71,9.7a6.45,6.45,0,0,1-9,.27,6.3,6.3,0,0,1-.45-8.84c1.12-1.33,2.42-2.52,3.64-3.78.62-.63.64-.71-.12-1.12A20.28,20.28,0,0,0,408.11,121.24Z" style="fill:none;stroke:#fff;stroke-width:4px"/><path d="M454.61,126.49a2.92,2.92,0,0,0-2.95,5,19.91,19.91,0,0,1,8.69,10.53,2.91,2.91,0,1,0,5.5-1.93A25.66,25.66,0,0,0,454.61,126.49Z" style="fill:none;stroke:#fff;stroke-width:4px"/><path d="M89.07,99,14.33,221h149.5Zm0,11.2L153,215.4,47.51,202.62Z" style="fill:none;stroke:#fff;stroke-width:4px"/><path d="M372.24,197.21a37.21,37.21,0,0,1-4.71-74.13,35.46,35.46,0,0,1,16.23-16.67,54.81,54.81,0,1,0,21.79,97.11l-12.61-12.6A37,37,0,0,1,372.24,197.21Z"/><path d="M406.8,106.75a35.62,35.62,0,0,1,15.46,3.58,50.63,50.63,0,0,1,5.25,3.11,1.24,1.24,0,0,0,1.62,0,35.73,35.73,0,0,1,55.78,21.91c2.14,11-.25,21.14-7.43,29.85-2.7,3.27-6,6.08-9,9.11-.16.16-.35.31-.51.48q-5.92,5.83-11.84,11.67-6.82,6.69-13.68,13.36l-13.12,12.82c-.82.79-.87.81-1.72,0q-5-4.48-9.93-9c-12.38-11.37-23.9-23.63-35.86-35.42a35.84,35.84,0,0,1-8-39.78,34.44,34.44,0,0,1,7.26-10.9,35.08,35.08,0,0,1,22-10.58C404.34,106.87,405.57,106.83,406.8,106.75Zm1.31,14.49a20.7,20.7,0,0,0-17.6,9.18,21.12,21.12,0,0,0,2,26.51q17.47,17.63,35.08,35.12c.76.75.78.75,1.55,0q17.67-17.65,35.3-35.34a16.31,16.31,0,0,0,2.83-3.83c4-7.67,3.86-15.27-1.06-22.47-4.74-6.95-11.59-9.78-19.86-9a20.1,20.1,0,0,0-12.64,6.16c-3.23,3.25-6.45,6.49-9.71,9.7a6.45,6.45,0,0,1-9,.27,6.3,6.3,0,0,1-.45-8.84c1.12-1.33,2.42-2.52,3.64-3.78.62-.63.64-.71-.12-1.12A20.28,20.28,0,0,0,408.11,121.24Z"/><path d="M454.61,126.49a2.92,2.92,0,0,0-2.95,5,19.91,19.91,0,0,1,8.69,10.53,2.91,2.91,0,1,0,5.5-1.93A25.66,25.66,0,0,0,454.61,126.49Z"/><path d="M89.07,99,14.33,221h149.5Zm0,11.2L153,215.4,47.51,202.62Z"/><rect x="248.06" y="134.96" width="3.88" height="50.08" transform="translate(-39.91 223.64) rotate(-45)" style="fill:none;stroke:#fff;stroke-width:3px"/><rect x="224.96" y="158.06" width="50.08" height="3.88" transform="translate(-39.91 223.64) rotate(-45)" style="fill:none;stroke:#fff;stroke-width:3px"/><rect x="248.06" y="134.96" width="3.88" height="50.08" transform="translate(-39.91 223.64) rotate(-45)"/><rect x="224.96" y="158.06" width="50.08" height="3.88" transform="translate(-39.91 223.64) rotate(-45)"/></svg>