<svg id="Layer_1" data-name="Layer 1" xmlns="http://www.w3.org/2000/svg" viewBox="0 0 453.54 283.46"><path d="M317.81,141.73a41.53,41.53,0,0,1,79.4-17L342.3,179.61a41.1,41.1,0,0,1-6.69-3.8l34.07-34.08H359.33L330,171.09A41.36,41.36,0,0,1,317.81,141.73Z" style="fill:none;stroke:#fff;stroke-width:6px"/><path d="M400.86,141.75l-41.51,41.5A41.51,41.51,0,0,0,400.86,141.75Z" style="fill:none;stroke:#fff;stroke-width:6px"/><path d="M139.57,126.26,114.81,101.5a21.88,21.88,0,0,0-30.95,0L59.1,126.26a21.88,21.88,0,0,0,0,31L83.86,182a21.88,21.88,0,0,0,31,0l24.76-24.76A21.88,21.88,0,0,0,139.57,126.26ZM99.33,157.1a15.37,15.37,0,1,1,15.37-15.37A15.37,15.37,0,0,1,99.33,157.1Z" style="fill:none;stroke:#fff;stroke-width:6px"/><rect x="192.22" y="142.99" width="60.34" height="8.13" transform="translate(-38.85 200.33) rotate(-45)" style="fill:none;stroke:#fff;stroke-width:6px"/><rect x="218.33" y="116.89" width="8.13" height="60.34" transform="translate(-38.85 200.33) rotate(-45)" style="fill:none;stroke:#fff;stroke-width:6px"/><path d="M317.81,141.73a41.53,41.53,0,0,1,79.4-17L342.3,179.61a41.1,41.1,0,0,1-6.69-3.8l34.07-34.08H359.33L330,171.09A41.36,41.36,0,0,1,317.81,141.73Z"/><path d="M400.86,141.75l-41.51,41.5A41.51,41.51,0,0,0,400.86,141.75Z"/><path d="M139.57,126.26,114.81,101.5a21.88,21.88,0,0,0-30.95,0L59.1,126.26a21.88,21.88,0,0,0,0,31L83.86,182a21.88,21.88,0,0,0,31,0l24.76-24.76A21.88,21.88,0,0,0,139.57,126.26ZM99.33,157.1a15.37,15.37,0,1,1,15.37-15.37A15.37,15.37,0,0,1,99.33,157.1Z" style="fill:#2962ff"/><rect x="192.22" y="142.99" width="60.34" height="8.13" transform="translate(-38.85 200.33) rotate(-45)"/><rect x="218.33" y="116.89" width="8.13" height="60.34" transform="translate(-38.85 200.33) rotate(-45)"/></svg>